<svg width="24" height="24" viewBox="0 0 24 24" fill="none" xmlns="http://www.w3.org/2000/svg">
<g clip-path="url(#clip0_11_3143)">
<path d="M2.00003 12.0773C1.99403 11.2153 2.91003 10.7213 3.61803 11.1023L3.71303 11.1603L6.39103 12.9643C7.36303 13.6193 6.76803 15.1073 5.65703 14.9713L5.54003 14.9513L4.47703 14.7173C5.01733 16.2122 5.99057 17.5122 7.27267 18.4518C8.55477 19.3913 10.0876 19.9277 11.6758 19.9926C13.264 20.0575 14.8355 19.648 16.19 18.8162C17.5445 17.9844 18.6206 16.7681 19.281 15.3223C19.3946 15.0869 19.5957 14.9054 19.8415 14.8164C20.0872 14.7275 20.358 14.7383 20.5958 14.8465C20.8337 14.9547 21.0198 15.1518 21.1142 15.3955C21.2086 15.6391 21.2039 15.9101 21.101 16.1503C19.114 20.5203 14.205 22.9433 9.41403 21.6593C7.30026 21.093 5.43051 19.8492 4.09137 18.1184C2.75223 16.3877 2.01758 14.2656 2.00003 12.0773ZM2.90303 7.84932C4.89003 3.47932 9.79903 1.05732 14.59 2.34032C16.7037 2.90644 18.5734 4.1501 19.9126 5.88067C21.2517 7.61123 21.9864 9.7332 22.004 11.9213C22.011 12.7843 21.094 13.2793 20.387 12.8973L20.291 12.8393L17.613 11.0353C16.641 10.3803 17.236 8.89232 18.347 9.02832L18.464 9.04832L19.527 9.28232C18.9867 7.78747 18.0135 6.4874 16.7314 5.54787C15.4493 4.60834 13.9164 4.07192 12.3283 4.00702C10.7401 3.94212 9.16857 4.35166 7.81408 5.18344C6.45959 6.01522 5.3835 7.23155 4.72303 8.67732C4.6706 8.79979 4.59424 8.91054 4.49841 9.00308C4.40259 9.09562 4.28925 9.16808 4.16504 9.21621C4.04082 9.26434 3.90825 9.28716 3.77509 9.28335C3.64193 9.27953 3.51088 9.24915 3.38963 9.19399C3.26838 9.13882 3.15937 9.05999 3.069 8.96212C2.97864 8.86424 2.90874 8.7493 2.86341 8.62404C2.81808 8.49878 2.79823 8.36572 2.80504 8.23268C2.81184 8.09965 2.84516 7.96931 2.90303 7.84932Z" fill="white"/>
</g>
<defs>
<clipPath id="clip0_11_3143">
<rect width="24" height="24" fill="white"/>
</clipPath>
</defs>
</svg>
