<svg width="24" height="24" viewBox="0 0 24 24" fill="none" xmlns="http://www.w3.org/2000/svg">
<g clip-path="url(#clip0_10_1725)">
<path d="M13.2 3.025C12.8538 2.76536 12.4327 2.625 12 2.625C11.5673 2.625 11.1462 2.76536 10.8 3.025L3.8 8.275C3.55161 8.46129 3.35 8.70286 3.21115 8.98057C3.07229 9.25828 3 9.56451 3 9.875V19.375C3 19.9054 3.21071 20.4141 3.58579 20.7892C3.96086 21.1643 4.46957 21.375 5 21.375H8.9C9.19174 21.375 9.47153 21.2591 9.67782 21.0528C9.88411 20.8465 10 20.5667 10 20.275V15.375C10 14.8446 10.2107 14.3359 10.5858 13.9608C10.9609 13.5857 11.4696 13.375 12 13.375C12.5304 13.375 13.0391 13.5857 13.4142 13.9608C13.7893 14.3359 14 14.8446 14 15.375V20.275C14 20.5667 14.1159 20.8465 14.3222 21.0528C14.5285 21.2591 14.8083 21.375 15.1 21.375H19C19.5304 21.375 20.0391 21.1643 20.4142 20.7892C20.7893 20.4141 21 19.9054 21 19.375V9.875C21 9.56451 20.9277 9.25828 20.7889 8.98057C20.65 8.70286 20.4484 8.46129 20.2 8.275L13.2 3.025Z" fill="#FA6487"/>
</g>
<defs>
<clipPath id="clip0_10_1725">
<rect width="24" height="24" fill="white"/>
</clipPath>
</defs>
</svg>
